<svg width="96" height="96" viewBox="0 0 96 96" fill="none" xmlns="http://www.w3.org/2000/svg">
  <circle cx="48" cy="48" r="34" fill="url(#gold)"/>
  <path d="M26 52.5C25.6 49.6 27.9 47 30.8 47H66.5L53.2 58.8C51.2 60.6 48.4 61.2 45.8 60.5L29.3 56C27.5 55.5 26.2 54.2 26 52.5Z" fill="white"/>
  <path d="M27.5 43.5C27.7 41.7 29 40.4 30.8 39.9L45.8 35.8C48.4 35.1 51.2 35.7 53.2 37.5L66.5 49.3H30.8C27.9 49.3 25.6 46.7 27.5 43.5Z" fill="white"/>
  <path d="M48 48L80 45.5L61.5 49.8L80 52.5L48 48Z" fill="#D9D9D9"/>
  <defs>
    <linearGradient id="gold" x1="20" y1="18" x2="75" y2="77" gradientUnits="userSpaceOnUse">
      <stop stop-color="#F3D45D"/>
      <stop offset="1" stop-color="#E0B600"/>
    </linearGradient>
  </defs>
</svg>
